HIERARCHY
ROOT Hips
{
  OFFSET 133.721 92.5478 -7.45119
  CHANNELS 6 Xposition Yposition Zposition Zrotation Xrotation Yrotation
  JOINT ToSpine
  {
    OFFSET -2.69724 7.43032 -0.144315
    CHANNELS 3 Zrotation Xrotation Yrotation
    JOINT Spine
    {
      OFFSET -0.0310711 10.7595 1.96963
      CHANNELS 3 Zrotation Xrotation Yrotation
      JOINT Spine1
      {
        OFFSET 13.1342 3.43533 0.764692
        CHANNELS 3 Zrotation Xrotation Yrotation
        JOINT Neck
        {
          OFFSET 29.8703 7.82586 -0.130764
          CHANNELS 3 Zrotation Xrotation Yrotation
          JOINT Head
          {
            OFFSET 9.52751 0.295786 -0.907742
            CHANNELS 3 Zrotation Xrotation Yrotation
            End Site
            {
              OFFSET 16.4037 0.713936 2.7358
            }
          }
        }
        JOINT LeftShoulder
        {
          OFFSET 27.5574 4.95586 2.47156
          CHANNELS 3 Zrotation Xrotation Yrotation
          JOINT LeftArm
          {
            OFFSET 1.20734 -0.998971 20.1238
            CHANNELS 3 Zrotation Xrotation Yrotation
            JOINT LeftForeArm
            {
              OFFSET 26.8049 -0.0536703 -0.155908
              CHANNELS 3 Zrotation Xrotation Yrotation
              JOINT LeftHand
              {
                OFFSET 26.6817 0 0.320147
                CHANNELS 3 Zrotation Xrotation Yrotation
                End Site
                {
                  OFFSET 18.6119 0 0.382219
                }
              }
            }
          }
        }
        JOINT RightShoulder
        {
          OFFSET 27.5927 4.71444 -2.65209
          CHANNELS 3 Zrotation Xrotation Yrotation
          JOINT RightArm
          {
            OFFSET 2.83739 -1.17114 -18.7564
            CHANNELS 3 Zrotation Xrotation Yrotation
            JOINT RightForeArm
            {
              OFFSET 28.839 -0.0548439 1.22491
              CHANNELS 3 Zrotation Xrotation Yrotation
              JOINT RightHand
              {
                OFFSET 26.5114 0 -0.101894
                CHANNELS 3 Zrotation Xrotation Yrotation
                End Site
                {
                  OFFSET 18.2168 0 0
                }
              }
            }
          }
        }
      }
    }
  }
  JOINT LeftUpLeg
  {
    OFFSET -4.76168 -1.9167 -10.2353
    CHANNELS 3 Zrotation Xrotation Yrotation
    JOINT LeftLeg
    {
      OFFSET 2.55951 -42.0585 -8.02213
      CHANNELS 3 Zrotation Xrotation Yrotation
      JOINT LeftFoot
      {
        OFFSET 3.16357 -42.5282 -3.95426
        CHANNELS 3 Zrotation Xrotation Yrotation
        JOINT LeftToeBase
        {
          OFFSET 0.346054 -6.02161 12.8035
          CHANNELS 3 Zrotation Xrotation Yrotation
          End Site
          {
            OFFSET 0.134235 -1.35082 5.13018
          }
        }
      }
    }
  }
  JOINT RightUpLeg
  {
    OFFSET -4.94151 -1.41743 10.6446
    CHANNELS 3 Zrotation Xrotation Yrotation
    JOINT RightLeg
    {
      OFFSET -2.56294 -42.0364 -7.94377
      CHANNELS 3 Zrotation Xrotation Yrotation
      JOINT RightFoot
      {
        OFFSET -3.0952 -42.555 -4.02241
        CHANNELS 3 Zrotation Xrotation Yrotation
        JOINT RightToeBase
        {
          OFFSET -0.0828122 -6.13587 12.8035
          CHANNELS 3 Zrotation Xrotation Yrotation
          End Site
          {
            OFFSET -0.131328 -1.35082 5.13018
          }
        }
      }
    }
  }
}
MOTION
Frames:	6
Frame Time:	0.0333333
139.258 98.0023 19.899 -74.5617 -9.49708 166.056 -70.1915 0 88.8779 106.87 67.9266 -11.0453 1.47527 19.1444 -2.12005 -140.893 9.93314 -155.305 -144.192 43.2848 -175.372 0.0299245 -16.3089 -26.7065 -124.098 -8.09278 -66.4436 1.81478 0.756805 -67.8715 0.420957 0.000575851 0.35866 -0.502954 6.30754 22.3341 -51.0295 -21.2415 142.199 9.16771 2.37677 104.031 0.58676 0.000331284 0.0646652 -46.6337 11.3409 125.101 -7.35301 58.931 -17.3862 -19.4254 13.4922 5.79643 4.21875 -4.53193 -15.3038 -36.8332 -14.9178 72.3353 3.71807 51.5803 3.10692 -13.574 8.58023 2.20656 2.44833 -25.6488 -11.4966 
140.137 97.7949 18.6371 -73.4755 -8.97218 169.871 -70.1915 0 88.8779 104.341 67.6938 -11.3025 1.82251 17.7414 1.00812 -142.894 9.02849 -156.189 -144.714 43.2878 -174.285 0.14306 -15.7215 -26.4434 -131.219 -6.90369 -65.4617 4.91641 1.52308 -72.5013 0.420957 0.000575851 0.35866 -0.547086 6.17759 23.31 -51.2063 -19.8968 140.378 8.9279 2.83748 107.076 0.58676 0.000331284 0.0646652 -49.7072 6.29474 122.902 -4.38957 48.4719 -12.6038 -14.4598 7.50947 3.37396 6.45681 -11.7342 -14.4493 -30.6752 -13.1657 77.3519 6.62381 60.0535 9.23717 -7.43613 15.7163 0.949818 2.84048 -26.6242 -8.05876 
141.142 97.1127 17.2454 -71.9302 -6.90457 173.542 -70.1915 0 88.8779 102.736 68.4491 -10.6947 2.21042 17.9745 2.25693 -144.452 7.70025 -159.225 -143.829 42.5594 -175.104 0.282748 -15.0853 -25.5941 -136.838 -5.42325 -66.3799 7.56947 1.91392 -75.3995 0.420957 0.000575851 0.35866 -0.55443 6.13902 23.5221 -50.8032 -20.89 140.85 10.2823 3.75385 109.433 0.58676 0.000331284 0.0646652 -50.9306 5.22651 121.941 -1.92872 41.3206 -1.47885 -8.47641 -2.79829 0.565943 6.06674 -9.82192 -17.1772 -25.8022 -9.16764 85.8164 8.88677 64.072 15.4939 -7.14342 16.1242 0.826749 1.39106 -31.9086 -20.3756 
141.68 96.466 15.3298 -71.4887 -7.30817 177.943 -70.1915 0 88.8779 101.399 68.6083 -10.2467 1.55643 17.573 3.87739 -144.337 6.309 -163.707 -141.999 40.7287 -179.151 0.259991 -14.9611 -26.7607 -140.523 -4.29318 -70.4456 8.40593 1.89892 -76.8092 0.420957 0.000575851 0.35866 -0.575851 5.93714 24.2225 -49.3857 -22.8183 142.019 10.7802 4.2712 110.949 0.58676 0.000331284 0.0646652 -50.315 7.28247 119.114 -1.50413 37.81 0.916309 -2.89478 -7.80799 -0.533983 4.22959 -8.00194 -4.72332 -25.7965 -7.95111 90.7507 7.55256 62.6358 10.2987 -9.2043 13.2724 1.35852 1.14664 -31.0678 -23.4093 
142.183 95.2418 13.2466 -71.5146 -10.7022 -178.127 -70.1915 0 88.8779 98.3958 68.6276 -9.41466 1.30148 16.8958 5.80699 -142.23 6.23965 -167.757 -140.298 40.0477 178.09 -0.105773 -15.9702 -30.2592 -142.885 -2.4128 -77.8456 10.1485 2.42514 -76.1291 0.420957 0.000575851 0.35866 -0.62374 4.98214 27.8074 -48.7141 -22.7135 141.375 11.1689 4.75126 112.34 0.58676 0.000331284 0.0646652 -47.4814 9.59288 113.653 -1.74117 40.3671 1.14786 -0.765831 -12.9284 -1.12019 2.62329 -5.35728 -1.16332 -27.6293 -11.4159 93.1065 5.22346 60.1898 2.25703 -12.3765 9.84911 2.07353 1.6853 -25.6494 -22.1949 
142.607 94.1865 11.5435 -71.3998 -14.8525 -175.68 -70.1915 0 88.8779 94.1633 68.7918 -7.36124 2.4188 16.9022 5.79384 -141.44 6.42941 -171.163 -140.001 40.5169 177.561 -0.414938 -16.9823 -31.9943 -143.622 1.38161 -83.5259 12.0174 3.332 -74.1627 0.420957 0.000575851 0.35866 -0.774502 5.00291 30.6759 -48.417 -24.0177 140.667 9.91584 4.54511 113.931 0.58676 0.000331284 0.0646652 -44.0079 11.9879 111.167 -2.60788 44.9989 -2.30415 -0.72754 -15.0615 -1.29458 1.78796 -4.47675 1.77209 -30.906 -17.3419 92.1773 3.48511 56.3514 -2.42946 -17.791 12.5659 3.39121 1.83377 -22.332 -26.7624 
